<?xml version="1.0" encoding="iso-8859-1"?>
<!-- Uploaded to: SVG Repo, www.svgrepo.com, Generator: SVG Repo Mixer Tools -->
<svg fill="#FFF" height="800px" width="800px" version="1.1" id="Layer_1" xmlns="http://www.w3.org/2000/svg" xmlns:xlink="http://www.w3.org/1999/xlink" 
	 viewBox="0 0 512 512" xml:space="preserve">
<g>
	<g>
		<path d="M188.995,164.785c-0.145-0.711-0.356-1.414-0.634-2.091c-0.278-0.669-0.623-1.315-1.024-1.914
			c-0.4-0.613-0.867-1.181-1.38-1.693c-0.512-0.512-1.08-0.979-1.692-1.38c-0.601-0.4-1.247-0.746-1.926-1.024
			c-0.668-0.289-1.368-0.501-2.08-0.646c-1.436-0.289-2.916-0.289-4.341,0c-0.712,0.145-1.414,0.356-2.092,0.646
			c-0.669,0.278-1.313,0.624-1.914,1.024c-0.613,0.401-1.181,0.868-1.693,1.38c-0.512,0.512-0.979,1.08-1.38,1.693
			c-0.412,0.6-0.746,1.245-1.024,1.914c-0.289,0.678-0.501,1.38-0.646,2.093s-0.21,1.447-0.21,2.17c0,0.722,0.067,1.458,0.21,2.17
			c0.145,0.712,0.356,1.414,0.646,2.093c0.278,0.668,0.612,1.313,1.024,1.914c0.401,0.612,0.868,1.18,1.38,1.692
			c0.512,0.512,1.08,0.981,1.693,1.38c0.601,0.401,1.245,0.746,1.914,1.024c0.679,0.278,1.38,0.49,2.092,0.634
			c0.712,0.145,1.447,0.223,2.17,0.223c2.938,0,5.799-1.191,7.868-3.262c0.513-0.512,0.981-1.08,1.38-1.692
			c0.401-0.601,0.746-1.247,1.024-1.914c0.278-0.679,0.49-1.38,0.634-2.093c0.145-0.713,0.223-1.448,0.223-2.17
			C189.218,166.232,189.14,165.497,188.995,164.785z"/>
	</g>
</g>
<g>
	<g>
		<path d="M511.901,499.397l-44.522-333.912c-0.737-5.531-5.454-9.66-11.032-9.66h-33.771C416.828,68.937,344.318,0,256,0
			S95.172,68.937,89.424,155.825H55.653c-5.578,0-10.296,4.129-11.032,9.66L0.099,499.397c-0.813,6.093,3.468,11.691,9.562,12.503
			c0.499,0.067,0.995,0.099,1.485,0.099c5.493,0,10.272-4.066,11.018-9.661l43.234-324.252h24.026
			c5.505,83.209,72.237,149.941,155.446,155.445v167.336c0,6.146,4.984,11.13,11.13,11.13c6.146,0,11.13-4.984,11.13-11.13V333.532
			c83.209-5.504,149.941-72.236,155.446-155.445h24.026l43.234,324.252c0.746,5.594,5.525,9.661,11.018,9.661
			c0.49,0,0.986-0.032,1.485-0.099C508.433,511.088,512.714,505.49,511.901,499.397z M267.13,311.228V178.087h133.141
			C394.85,249.018,338.061,305.807,267.13,311.228z M211.478,155.827c-6.146,0-11.13,4.984-11.13,11.13
			c0,6.146,4.984,11.13,11.13,11.13h33.391v133.141c-70.931-5.42-127.719-62.21-133.141-133.141h32.967
			c6.146,0,11.13-4.984,11.13-11.13c0-6.146-4.984-11.13-11.13-11.13h-32.967C117.431,81.222,179.959,22.262,256,22.262
			s138.569,58.96,144.271,133.565H211.478z"/>
	</g>
</g>
</svg>