<?xml version="1.0" encoding="iso-8859-1"?>
<!-- Uploaded to: SVG Repo, www.svgrepo.com, Generator: SVG Repo Mixer Tools -->
<svg fill="#FFFF" height="800px" width="800px" version="1.1" id="Layer_1" xmlns="http://www.w3.org/2000/svg" xmlns:xlink="http://www.w3.org/1999/xlink" 
	 viewBox="0 0 512 512" xml:space="preserve">
<g transform="translate(1 1)">
	<g>
		<g>
			<path d="M362.361,119.801L261.012,1.56c-3.413-3.413-9.387-3.413-12.8,0l-102.4,119.467c-1.242,1.863-2.027,4.18-1.707,6.618
				v238.289c0,5.12,3.413,8.533,8.533,8.533h34.987l-25.6,38.4c-1.707,2.56-1.707,5.973,0,8.533s4.267,4.267,7.68,4.267h170.667
				c3.413,0,5.12-2.56,6.827-5.12s1.707-5.973,0-8.533l-25.031-37.547h35.271c5.12,0,8.533-3.413,8.533-8.533V127
				C365.972,123.788,364.627,121.248,362.361,119.801z M255.038,20.333l84.48,98.133H171.412L255.038,20.333z M325.012,408.6
				h-27.307v-8.533c0-5.12-3.413-8.533-8.533-8.533c-5.12,0-8.533,3.413-8.533,8.533v8.533h-17.067v-8.533
				c0-5.12-3.413-8.533-8.533-8.533c-5.12,0-8.533,3.413-8.533,8.533v8.533h-17.067v-8.533c0-5.12-3.413-8.533-8.533-8.533
				s-8.533,3.413-8.533,8.533v8.533h-26.453l22.187-34.133h93.867L325.012,408.6z M306.239,357.4h-102.4h-42.667v-17.067h34.133
				c5.12,0,8.533-3.413,8.533-8.533c0-5.12-3.413-8.533-8.533-8.533h-34.133v-153.6h68.267c5.12,0,8.533-3.413,8.533-8.533
				s-3.413-8.533-8.533-8.533h-68.267v-17.067h187.733V152.6h-59.733c-5.12,0-8.533,3.413-8.533,8.533s3.413,8.533,8.533,8.533
				h59.733v153.6h-25.6c-5.12,0-8.533,3.413-8.533,8.533c0,5.12,3.413,8.533,8.533,8.533h25.6V357.4H306.239z"/>
			<path d="M255.038,493.933c-5.12,0-8.533,3.413-8.533,8.533s3.413,8.533,8.533,8.533c5.12,0,8.533-3.413,8.533-8.533
				S260.159,493.933,255.038,493.933z"/>
			<path d="M255.038,442.733c-5.12,0-8.533,3.413-8.533,8.533v17.067c0,5.12,3.413,8.533,8.533,8.533
				c5.12,0,8.533-3.413,8.533-8.533v-17.067C263.572,446.147,260.159,442.733,255.038,442.733z"/>
			<path d="M323.305,485.4c-5.12,0-8.533,3.413-8.533,8.533s3.413,8.533,8.533,8.533s8.533-3.413,8.533-8.533
				S328.425,485.4,323.305,485.4z"/>
			<path d="M304.532,447c-1.707-3.413-6.827-5.12-11.093-3.413c-3.413,1.707-5.12,6.827-3.413,11.093l8.533,17.067
				c1.707,3.413,4.267,5.12,7.68,5.12c1.707,0,2.56,0,3.413-1.707c3.413-1.707,5.12-6.827,3.413-11.093L304.532,447z"/>
			<path d="M186.772,485.4c-5.12,0-8.533,3.413-8.533,8.533s3.413,8.533,8.533,8.533s8.533-3.413,8.533-8.533
				S191.892,485.4,186.772,485.4z"/>
			<path d="M216.638,444.44c-4.267-2.56-9.387-0.853-11.093,3.413l-8.533,17.067c-2.56,4.267-0.853,9.387,3.413,11.093
				c0.853,0.853,2.56,0.853,3.413,0.853c3.413,0,5.973-1.707,7.68-4.267l8.533-17.067
				C222.612,451.267,220.905,446.147,216.638,444.44z"/>
			<path d="M255.038,186.733c-33.28,0-59.733,26.453-59.733,59.733c0,33.28,26.453,59.733,59.733,59.733
				c33.28,0,59.733-26.453,59.733-59.733C314.772,213.187,288.318,186.733,255.038,186.733z M263.572,288.308v-16.241
				c0-5.12-3.413-8.533-8.533-8.533c-5.12,0-8.533,3.413-8.533,8.533v16.241c-16.93-3.32-29.988-16.378-33.308-33.308h16.241
				c5.12,0,8.533-3.413,8.533-8.533s-3.413-8.533-8.533-8.533h-16.241c3.32-16.93,16.378-29.988,33.308-33.308v16.241
				c0,5.12,3.413,8.533,8.533,8.533c5.12,0,8.533-3.413,8.533-8.533v-16.241c16.93,3.32,29.988,16.378,33.308,33.308h-16.241
				c-5.12,0-8.533,3.413-8.533,8.533s3.413,8.533,8.533,8.533h16.241C293.559,271.93,280.502,284.988,263.572,288.308z"/>
		</g>
	</g>
</g>
</svg>