<?xml version="1.0" encoding="iso-8859-1"?>
<!-- Uploaded to: SVG Repo, www.svgrepo.com, Generator: SVG Repo Mixer Tools -->
<svg fill="#FFFF" height="800px" width="800px" version="1.1" id="Layer_1" xmlns="http://www.w3.org/2000/svg" xmlns:xlink="http://www.w3.org/1999/xlink" 
	 viewBox="0 0 512.001 512.001" xml:space="preserve">
<g>
	<g>
		<g>
			<path d="M209.441,312L184,439.207V440c0,39.702,32.298,72.001,72,72.001s72.001-32.299,72.001-72.001v-0.793L302.559,312H209.441
				z M256,495.999c-27.458,0-50.35-19.87-55.087-45.984C215.625,463.997,235.243,472,256,472s40.375-8.003,55.088-21.986
				C306.351,476.128,283.458,495.999,256,495.999z M240,383.999c0-8.822,7.177-16,16-16s16,7.177,16,16
				c0,8.823-7.177,16.001-16,16.001S240,392.822,240,383.999z M309.229,427.547C298.805,443.12,282.29,453.206,264,455.5v-40.511
				c13.786-3.562,24-16.105,24-30.989c0-17.645-14.355-32-32-32c-17.644,0-31.999,14.355-31.999,32
				c0,14.884,10.214,27.427,24,30.989V455.5c-18.294-2.293-34.813-12.384-45.237-27.962l-0.13,0.087l19.925-99.624h66.884
				l19.928,99.642L309.229,427.547z"/>
			<path d="M256,0c-61.757,0-111.999,50.243-111.999,112v2.314l0.361,0.572c0.547,2.121,1.732,4.028,3.633,5.753L233.485,256H232
				v16.001h16v16h-24v16.001h64V288h-24v-16h16V256h-1.485l85.49-135.361c1.901-1.726,3.087-3.633,3.634-5.753l0.361-0.572V112
				C368,50.243,317.757,0,256,0z M208.017,28.882C202.803,38.921,200,51.03,200,64.001c0,8.922,1.828,17.604,5.34,25.624
				c-8.739,0.758-16.865,1.715-24.127,2.862c-8.091,1.277-14.708,2.695-20.005,4.323C165.84,67.795,183.516,43.08,208.017,28.882z
				 M248,249.019l-75.146-118.983c2.594,0.514,5.372,1.005,8.359,1.478c18.133,2.863,41.608,4.558,66.787,4.855V249.019z
				 M248,120.374c-41.881-0.484-69.415-4.703-81.887-8.374c12.471-3.671,40.006-7.89,81.887-8.374V120.374z M256,87.578
				c-11.493,0-22.705,0.295-33.326,0.852c-4.375-7.377-6.674-15.752-6.674-24.431c0-35.43,21.548-48,40.001-48
				c18.452,0,40,12.57,40,48c0,8.679-2.298,17.054-6.673,24.431C278.705,87.874,267.493,87.578,256,87.578z M264,249.018V136.369
				c25.18-0.297,48.654-1.992,66.787-4.855c2.987-0.472,5.764-0.964,8.359-1.477L264,249.018z M264,120.374v-16.749
				c41.88,0.484,69.415,4.703,81.886,8.374C333.415,115.672,305.88,119.891,264,120.374z M330.787,92.486
				c-7.261-1.146-15.387-2.103-24.127-2.862c3.511-8.02,5.34-16.703,5.34-25.624c0-12.971-2.803-25.079-8.018-35.12
				c24.501,14.199,42.177,38.914,46.809,67.928C345.495,95.181,338.878,93.764,330.787,92.486z"/>
		</g>
	</g>
</g>
</svg>